HIERARCHY
ROOT hip
{
  OFFSET 0 0 0
  CHANNELS 6 Xposition Yposition Zposition Zrotation Yrotation Xrotation
  JOINT abdomen
  {
    OFFSET 0 20.6881 -0.73152
    CHANNELS 3 Zrotation Xrotation Yrotation
    JOINT chest
    {
      OFFSET 0 11.7043 -0.48768
      CHANNELS 3 Zrotation Xrotation Yrotation
      JOINT neck
      {
        OFFSET 0 22.1894 -2.19456
        CHANNELS 3 Zrotation Xrotation Yrotation
        JOINT head
        {
          OFFSET -0.24384 7.07133 1.2192
          CHANNELS 3 Zrotation Xrotation Yrotation
          JOINT leftEye
          {
            OFFSET 4.14528 8.04674 8.04672
            CHANNELS 3 Zrotation Xrotation Yrotation
            End Site
            {
              OFFSET 1 0 0
            }
          }
          JOINT rightEye
          {
            OFFSET -3.6576 8.04674 8.04672
            CHANNELS 3 Zrotation Xrotation Yrotation
            End Site
            {
              OFFSET 1 0 0
            }
          }
        }
      }
      JOINT rCollar
      {
        OFFSET -2.68224 19.2634 -4.8768
        CHANNELS 3 Zrotation Xrotation Yrotation
        JOINT rShldr
        {
          OFFSET -8.77824 -1.95073 1.46304
          CHANNELS 3 Zrotation Xrotation Yrotation
          JOINT rForeArm
          {
            OFFSET -28.1742 -1.7115 0.48768
            CHANNELS 3 Zrotation Xrotation Yrotation
            JOINT rHand
            {
              OFFSET -22.5879 0.773209 7.07136
              CHANNELS 3 Zrotation Xrotation Yrotation
              JOINT rThumb1
              {
                OFFSET -1.2192 -0.487915 3.41376
                CHANNELS 3 Zrotation Xrotation Yrotation
                JOINT rThumb2
                {
                  OFFSET -3.37035 -0.52449 3.41376
                  CHANNELS 3 Zrotation Xrotation Yrotation
                  End Site
                  {
                    OFFSET -1.78271 -1.18214 1.43049
                  }
                }
              }
              JOINT rIndex1
              {
                OFFSET -7.75947 0.938293 5.60832
                CHANNELS 3 Zrotation Xrotation Yrotation
                JOINT rIndex2
                {
                  OFFSET -2.54057 -0.884171 1.56538
                  CHANNELS 3 Zrotation Xrotation Yrotation
                  End Site
                  {
                    OFFSET -1.62519 -0.234802 1.16502
                  }
                }
              }
              JOINT rMid1
              {
                OFFSET -8.24714 1.18213 3.41376
                CHANNELS 3 Zrotation Xrotation Yrotation
                JOINT rMid2
                {
                  OFFSET -3.10165 -0.590103 1.0647
                  CHANNELS 3 Zrotation Xrotation Yrotation
                  End Site
                  {
                    OFFSET -2.48547 -0.328903 0.83742
                  }
                }
              }
              JOINT rRing1
              {
                OFFSET -8.82822 0.546677 1.51678
                CHANNELS 3 Zrotation Xrotation Yrotation
                JOINT rRing2
                {
                  OFFSET -2.60934 -0.819778 -0.0198488
                  CHANNELS 3 Zrotation Xrotation Yrotation
                  End Site
                  {
                    OFFSET -2.33842 -0.294052 0.168128
                  }
                }
              }
              JOINT rPinky1
              {
                OFFSET -8.27202 -0.0477905 -0.4584
                CHANNELS 3 Zrotation Xrotation Yrotation
                JOINT rPinky2
                {
                  OFFSET -1.82734 -0.647385 -0.700984
                  CHANNELS 3 Zrotation Xrotation Yrotation
                  End Site
                  {
                    OFFSET -1.69225 -0.51767 -0.607171
                  }
                }
              }
            }
          }
        }
      }
      JOINT lCollar
      {
        OFFSET 2.68224 19.2634 -4.8768
        CHANNELS 3 Zrotation Xrotation Yrotation
        JOINT lShldr
        {
          OFFSET 8.77824 -1.95073 1.46304
          CHANNELS 3 Zrotation Xrotation Yrotation
          JOINT lForeArm
          {
            OFFSET 28.1742 -1.7115 0.48768
            CHANNELS 3 Zrotation Xrotation Yrotation
            JOINT lHand
            {
              OFFSET 22.5879 0.773209 7.07136
              CHANNELS 3 Zrotation Xrotation Yrotation
              JOINT lThumb1
              {
                OFFSET 1.2192 -0.487915 3.41376
                CHANNELS 3 Zrotation Xrotation Yrotation
                JOINT lThumb2
                {
                  OFFSET 3.37035 -0.52449 3.41376
                  CHANNELS 3 Zrotation Xrotation Yrotation
                  End Site
                  {
                    OFFSET 1.78271 -1.18214 1.43049
                  }
                }
              }
              JOINT lIndex1
              {
                OFFSET 7.75947 0.938293 5.60832
                CHANNELS 3 Zrotation Xrotation Yrotation
                JOINT lIndex2
                {
                  OFFSET 2.54057 -0.884171 1.56538
                  CHANNELS 3 Zrotation Xrotation Yrotation
                  End Site
                  {
                    OFFSET 1.62519 -0.234802 1.16502
                  }
                }
              }
              JOINT lMid1
              {
                OFFSET 8.24714 1.18213 3.41376
                CHANNELS 3 Zrotation Xrotation Yrotation
                JOINT lMid2
                {
                  OFFSET 3.10165 -0.590103 1.0647
                  CHANNELS 3 Zrotation Xrotation Yrotation
                  End Site
                  {
                    OFFSET 2.48547 -0.328903 0.83742
                  }
                }
              }
              JOINT lRing1
              {
                OFFSET 8.82822 0.546677 1.51678
                CHANNELS 3 Zrotation Xrotation Yrotation
                JOINT lRing2
                {
                  OFFSET 2.60934 -0.819778 -0.0198488
                  CHANNELS 3 Zrotation Xrotation Yrotation
                  End Site
                  {
                    OFFSET 2.33842 -0.294052 0.168128
                  }
                }
              }
              JOINT lPinky1
              {
                OFFSET 8.27202 -0.0477905 -0.4584
                CHANNELS 3 Zrotation Xrotation Yrotation
                JOINT lPinky2
                {
                  OFFSET 1.82734 -0.647385 -0.700984
                  CHANNELS 3 Zrotation Xrotation Yrotation
                  End Site
                  {
                    OFFSET 1.69225 -0.51767 -0.607171
                  }
                }
              }
            }
          }
        }
      }
    }
  }
  JOINT rButtock
  {
    OFFSET -8.77824 4.35084 1.2192
    CHANNELS 3 Zrotation Xrotation Yrotation
    JOINT rThigh
    {
      OFFSET 0 -1.70687 -2.19456
      CHANNELS 3 Zrotation Xrotation Yrotation
      JOINT rShin
      {
        OFFSET 0 -36.8199 0.73152
        CHANNELS 3 Zrotation Xrotation Yrotation
        JOINT rFoot
        {
          OFFSET 0.73152 -45.1104 -5.12064
          CHANNELS 3 Zrotation Xrotation Yrotation
          End Site
          {
            OFFSET -1.1221 -3.69964 12.103
          }
        }
      }
    }
  }
  JOINT lButtock
  {
    OFFSET 8.77824 4.35084 1.2192
    CHANNELS 3 Zrotation Xrotation Yrotation
    JOINT lThigh
    {
      OFFSET 0 -1.70687 -2.19456
      CHANNELS 3 Zrotation Xrotation Yrotation
      JOINT lShin
      {
        OFFSET 0 -36.8199 0.73152
        CHANNELS 3 Zrotation Xrotation Yrotation
        JOINT lFoot
        {
          OFFSET -0.73152 -45.1104 -5.12064
          CHANNELS 3 Zrotation Xrotation Yrotation
          End Site
          {
            OFFSET 1.1221 -3.69964 12.103
          }
        }
      }
    }
  }
}
MOTION
Frames:	5
Frame Time:	0.03333
-0.0024000000848900527 70.08259892463684 0.0375000003259629 -16.191808700561523 -25.350900650024414 12.923898696899414 11.914304733276367 6.993926525115967 11.51939868927002 -1.7908540964126587 -7.798356533050537 3.2347710132598877 -2.0952823162078857 14.25419807434082 1.1892744302749634 6.987360000610352 -26.192590713500977 4.045588970184326 -0.0 0.0 -0.0 -0.0 0.0 -0.0 -0.0 0.0 -0.0 77.42860412597656 48.1194953918457 -19.03959846496582 -28.40511131286621 -36.9070930480957 78.5385971069336 -0.1310078501701355 10.2652006149292 1.4584627151489258 -0.0 -0.0 -0.0 -0.0 -0.0 -0.0 -0.0 -0.0 -0.0 7.730902194976807 5.47491455078125 0.4173222780227661 -0.0 -0.0 -0.0 2.905566453933716 0.9650754332542419 0.10300818830728531 -0.0 -0.0 -0.0 10.278596878051758 0.7318810820579529 0.026273518800735474 -0.0 -0.0 -0.0 2.221662998199463 -0.7334509491920471 -0.20832103490829468 -0.0 0.0 -0.0 -51.70679473876953 31.04998779296875 -29.85930061340332 28.413103103637695 -36.714500427246094 -78.21300506591797 0.8656237125396729 -25.23563575744629 3.8015353679656982 0.0 0.0 0.0 0.0 0.0 0.0 0.0 0.0 0.0 -7.730902194976807 5.47491455078125 -0.4173222780227661 0.0 0.0 0.0 -2.905566453933716 0.9650754332542419 -0.10300818830728531 0.0 0.0 0.0 -10.278596878051758 0.7318810820579529 -0.026273518800735474 0.0 0.0 0.0 -2.221662998199463 -0.7334509491920471 0.20832103490829468 -0.0 0.0 -0.0 0.7416629195213318 -1.5097254514694214 -4.469898223876953 -0.1661587804555893 40.58219909667969 1.7608131170272827 -17.785600662231445 -20.484601974487305 -31.97449493408203 0.0 0.0 0.0 66.31438446044922 -57.646392822265625 55.044891357421875 2.1778900623321533 70.11920928955078 -2.294481039047241 0.7877621054649353 -1.800490379333496 1.7864043712615967
-0.0007000000550760888 69.91029977798462 0.12250000145286322 -16.209598541259766 -25.526901245117188 12.971504211425781 11.775912284851074 7.085264682769775 11.635594367980957 -1.7186199426651 -7.739076614379883 3.2725183963775635 -2.0032427310943604 14.123880386352539 1.175733208656311 6.762791156768799 -26.113595962524414 3.9638078212738037 -0.0 0.0 -0.0 -0.0 0.0 -0.0 -0.0 0.0 -0.0 76.9242935180664 47.721797943115234 -18.529895782470703 -28.408700942993164 -36.82819747924805 78.404296875 -0.138386532664299 10.546072959899902 1.4993484020233154 -0.0 -0.0 -0.0 -0.0 -0.0 -0.0 -0.0 -0.0 -0.0 7.730902194976807 5.47491455078125 0.4173222780227661 -0.0 -0.0 -0.0 2.905566453933716 0.9650754332542419 0.10300818830728531 -0.0 -0.0 -0.0 10.278596878051758 0.7318810820579529 0.026273518800735474 -0.0 -0.0 -0.0 2.221662998199463 -0.7334509491920471 -0.20832103490829468 -0.0 0.0 -0.0 -51.953304290771484 30.72249412536621 -30.167705535888672 28.414499282836914 -36.68409729003906 -78.160400390625 0.8453524708747864 -25.37108039855957 3.817934513092041 0.0 0.0 0.0 0.0 0.0 0.0 0.0 0.0 0.0 -7.730902194976807 5.47491455078125 -0.4173222780227661 0.0 0.0 0.0 -2.905566453933716 0.9650754332542419 -0.10300818830728531 0.0 0.0 0.0 -10.278596878051758 0.7318810820579529 -0.026273518800735474 0.0 0.0 0.0 -2.221662998199463 -0.7334509491920471 0.20832103490829468 -0.0 0.0 -0.0 0.47016263008117676 -1.7866727113723755 -4.422190189361572 -0.17415845394134521 40.99370574951172 1.7671467065811157 -17.68619155883789 -20.338998794555664 -31.899799346923828 0.0 0.0 0.0 66.74480438232422 -57.715309143066406 55.448402404785156 2.2413370609283447 70.5018081665039 -2.350771427154541 0.7791110277175903 -1.8240470886230469 1.6839985847473145
0.0033999998777289875 69.73490118980408 0.16930000274442136 -16.239797592163086 -25.351791381835938 13.042314529418945 11.813199996948242 6.976660251617432 11.500611305236816 -1.6486544609069824 -7.606021404266357 3.236238479614258 -1.9848885536193848 13.939204216003418 1.1620641946792603 6.668455123901367 -25.821401596069336 3.902207851409912 -0.0 0.0 -0.0 -0.0 0.0 -0.0 0.0 0.0 -0.0 76.5280990600586 47.3463020324707 -18.177095413208008 -28.409103393554688 -36.81648635864258 78.38470458984375 -0.13752925395965576 10.514184951782227 1.494605302810669 -0.0 -0.0 -0.0 -0.0 -0.0 -0.0 -0.0 -0.0 -0.0 7.730902194976807 5.47491455078125 0.4173222780227661 -0.0 -0.0 -0.0 2.905566453933716 0.9650754332542419 0.10300818830728531 -0.0 -0.0 -0.0 10.278596878051758 0.7318810820579529 0.026273518800735474 -0.0 -0.0 -0.0 2.221662998199463 -0.7334509491920471 -0.20832103490829468 -0.0 0.0 -0.0 -52.09720230102539 30.57150650024414 -30.476604461669922 28.41619873046875 -36.635704040527344 -78.07890319824219 0.8944142460823059 -25.82469367980957 3.8999273777008057 0.0 0.0 0.0 0.0 0.0 0.0 0.0 0.0 0.0 -7.730902194976807 5.47491455078125 -0.4173222780227661 0.0 0.0 0.0 -2.905566453933716 0.9650754332542419 -0.10300818830728531 0.0 0.0 0.0 -10.278596878051758 0.7318810820579529 -0.026273518800735474 0.0 0.0 0.0 -2.221662998199463 -0.7334509491920471 0.20832103490829468 -0.0 0.0 -0.0 0.24685601890087128 -1.816162109375 -5.0096869468688965 -0.17564909160137177 41.1376953125 1.7807763814926147 -17.68069839477539 -20.672407150268555 -31.60330581665039 0.0 0.0 0.0 67.27889251708984 -58.04110336303711 55.946388244628906 2.303731918334961 70.88631439208984 -2.4164376258850098 0.7611167430877686 -1.846631646156311 1.600576639175415
-0.057100000958598685 69.59559917449951 0.2394000010099262 -16.23749351501465 -24.905094146728516 13.127603530883789 11.968294143676758 6.821288108825684 11.251790046691895 -1.609541893005371 -7.473092555999756 3.165992021560669 -1.983668565750122 13.782711029052734 1.1411232948303223 6.6505866050720215 -25.52080535888672 3.842808246612549 -0.0 0.0 -0.0 -0.0 0.0 -0.0 -0.0 0.0 -0.0 76.28020477294922 46.962608337402344 -17.96880340576172 -28.408302307128906 -36.836097717285156 78.4177017211914 -0.13274608552455902 10.331914901733398 1.4682190418243408 -0.0 0.0 0.0 -0.0 0.0 0.0 -0.0 0.0 0.0 7.730902194976807 5.47491455078125 0.4173222780227661 -0.0 0.0 0.0 2.905566453933716 0.9650754332542419 0.10300818830728531 -0.0 0.0 0.0 10.278596878051758 0.7318810820579529 0.026273518800735474 -0.0 0.0 0.0 2.221662998199463 -0.7334509491920471 -0.20832103490829468 -0.0 0.0 -0.0 -52.15250015258789 30.5714054107666 -30.76300048828125 28.419103622436523 -36.55070114135742 -77.93510437011719 0.9158203601837158 -26.302095413208008 3.9796838760375977 -0.0 -0.0 -0.0 -0.0 -0.0 -0.0 -0.0 -0.0 -0.0 -7.730902194976807 5.47491455078125 -0.4173222780227661 -0.0 -0.0 -0.0 -2.905566453933716 0.9650754332542419 -0.10300818830728531 -0.0 -0.0 -0.0 -10.278596878051758 0.7318810820579529 -0.026273518800735474 -0.0 -0.0 -0.0 -2.221662998199463 -0.7334509491920471 0.20832103490829468 -0.0 0.0 -0.0 0.12630917131900787 -1.6996461153030396 -5.7701735496521 -0.17305432260036469 41.13058853149414 1.793947458267212 -17.684795379638672 -21.044986724853516 -31.30739974975586 0.0 0.0 0.0 67.868896484375 -58.448787689208984 56.47460174560547 2.362393856048584 71.23687744140625 -2.4843027591705322 0.7324941158294678 -1.8767704963684082 1.4837580919265747
-0.14699999865115387 69.47060227394104 0.3246000036597252 -16.365293502807617 -24.330707550048828 13.190409660339355 12.270805358886719 6.713135719299316 10.952203750610352 -1.6486709117889404 -7.429385185241699 3.0791921615600586 -1.9483366012573242 13.754298210144043 1.1056227684020996 6.710594654083252 -25.393001556396484 3.7769696712493896 -0.0 0.0 -0.0 -0.0 0.0 -0.0 -0.0 0.0 -0.0 76.24140167236328 46.56459426879883 -17.911893844604492 -28.407804489135742 -36.84999084472656 78.44129943847656 -0.12538722157478333 10.045393943786621 1.4265998601913452 -0.0 0.0 0.0 -0.0 0.0 0.0 -0.0 0.0 0.0 7.730902194976807 5.47491455078125 0.4173222780227661 -0.0 0.0 0.0 2.905566453933716 0.9650754332542419 0.10300818830728531 -0.0 0.0 0.0 10.278596878051758 0.7318810820579529 0.026273518800735474 -0.0 0.0 0.0 2.221662998199463 -0.7334509491920471 -0.20832103490829468 -0.0 0.0 -0.0 -52.064796447753906 30.7456111907959 -31.033100128173828 28.42329978942871 -36.41609573364258 -77.7074966430664 0.965205192565918 -26.544004440307617 4.029499053955078 0.0 0.0 0.0 0.0 0.0 0.0 0.0 0.0 0.0 -7.730902194976807 5.47491455078125 -0.4173222780227661 0.0 0.0 0.0 -2.905566453933716 0.9650754332542419 -0.10300818830728531 0.0 0.0 0.0 -10.278596878051758 0.7318810820579529 -0.026273518800735474 0.0 0.0 0.0 -2.221662998199463 -0.7334509491920471 0.20832103490829468 -0.0 0.0 -0.0 0.24444955587387085 -1.404072880744934 -6.392704010009766 -0.16672807931900024 40.908599853515625 1.7997311353683472 -17.682392120361328 -21.105907440185547 -31.265790939331055 0.0 0.0 0.0 68.46448516845703 -58.85081100463867 56.91568374633789 2.4013803005218506 71.48548889160156 -2.538147211074829 0.6954772472381592 -1.9563230276107788 1.3227636814117432
